<svg height="1511.195" viewBox="0 0 2836.85 1133.396" width="3782.467" xmlns="http://www.w3.org/2000/svg" xmlns:xlink="http://www.w3.org/1999/xlink"><defs><style>*{stroke-linecap:butt;stroke-linejoin:round}</style></defs><g id="figure_1"><path d="M0 1133.396h2836.85V0H0z" fill="none" id="patch_1"/><g id="axes_1"><path d="M39.65 516.5h2790V22.318h-2790z" fill="#fff" id="patch_2"/><g id="matplotlib.axis_1"><g id="xtick_1"><path clip-path="url(#pac3872c090)" d="M166.468 516.5V22.318" fill="none" stroke="#b0b0b0" stroke-linecap="square" stroke-width=".8" id="line2d_1"/><g id="line2d_2"><defs><path d="M0 0v3.5" id="mcc1a609365" stroke="#000" stroke-width=".8"/></defs><use x="166.468" xlink:href="#mcc1a609365" y="516.5" stroke="#000" stroke-width=".8"/></g><g transform="matrix(.1 0 0 -.1 163.287 531.098)" id="text_1"><defs><path d="M31.781 66.406q-7.61 0-11.453-7.5Q16.5 51.422 16.5 36.375q0-14.984 3.828-22.484 3.844-7.5 11.453-7.5 7.672 0 11.5 7.5 3.844 7.5 3.844 22.484 0 15.047-3.844 22.531-3.828 7.5-11.5 7.5zm0 7.813q12.266 0 18.735-9.703 6.468-9.688 6.468-28.141 0-18.406-6.468-28.11-6.47-9.687-18.735-9.687-12.25 0-18.718 9.688-6.47 9.703-6.47 28.109 0 18.453 6.47 28.14Q19.53 74.22 31.78 74.22z" id="DejaVuSans-48"/></defs><use xlink:href="#DejaVuSans-48"/></g></g><g id="xtick_2"><path clip-path="url(#pac3872c090)" d="M483.831 516.5V22.318" fill="none" stroke="#b0b0b0" stroke-linecap="square" stroke-width=".8" id="line2d_3"/><use x="483.831" xlink:href="#mcc1a609365" y="516.5" stroke="#000" stroke-width=".8" id="line2d_4"/><g transform="matrix(.1 0 0 -.1 474.287 531.098)" id="text_2"><defs><path d="M19.188 8.297h34.421V0H7.33v8.297q5.609 5.812 15.296 15.594 9.703 9.797 12.188 12.64 4.734 5.313 6.609 9 1.89 3.688 1.89 7.25 0 5.813-4.078 9.469-4.078 3.672-10.625 3.672-4.64 0-9.797-1.61-5.14-1.609-11-4.89v9.969Q13.767 71.78 18.938 73q5.188 1.219 9.485 1.219 11.328 0 18.062-5.672 6.735-5.656 6.735-15.125 0-4.5-1.688-8.531-1.672-4.016-6.125-9.485-1.218-1.422-7.765-8.187-6.532-6.766-18.453-18.922z" id="DejaVuSans-50"/><path d="M10.797 72.906h38.719v-8.312H19.828v-17.86q2.14.735 4.281 1.094 2.157.36 4.313.36 12.203 0 19.328-6.688 7.14-6.688 7.14-18.11 0-11.765-7.328-18.296-7.328-6.516-20.656-6.516-4.593 0-9.36.781-4.75.782-9.827 2.344v9.922q4.39-2.39 9.078-3.563 4.687-1.171 9.906-1.171 8.453 0 13.375 4.437 4.938 4.438 4.938 12.063 0 7.609-4.938 12.047-4.922 4.453-13.375 4.453-3.953 0-7.89-.875-3.922-.875-8.016-2.735z" id="DejaVuSans-53"/></defs><use xlink:href="#DejaVuSans-50"/><use x="63.623" xlink:href="#DejaVuSans-53"/><use x="127.246" xlink:href="#DejaVuSans-48"/></g></g><g id="xtick_3"><path clip-path="url(#pac3872c090)" d="M801.194 516.5V22.318" fill="none" stroke="#b0b0b0" stroke-linecap="square" stroke-width=".8" id="line2d_5"/><use x="801.194" xlink:href="#mcc1a609365" y="516.5" stroke="#000" stroke-width=".8" id="line2d_6"/><g transform="matrix(.1 0 0 -.1 791.65 531.098)" id="text_3"><use xlink:href="#DejaVuSans-53"/><use x="63.623" xlink:href="#DejaVuSans-48"/><use x="127.246" xlink:href="#DejaVuSans-48"/></g></g><g id="xtick_4"><path clip-path="url(#pac3872c090)" d="M1118.557 516.5V22.318" fill="none" stroke="#b0b0b0" stroke-linecap="square" stroke-width=".8" id="line2d_7"/><use x="1118.557" xlink:href="#mcc1a609365" y="516.5" stroke="#000" stroke-width=".8" id="line2d_8"/><g transform="matrix(.1 0 0 -.1 1109.013 531.098)" id="text_4"><defs><path d="M8.203 72.906h46.875v-4.203L28.61 0H18.312L43.22 64.594H8.203z" id="DejaVuSans-55"/></defs><use xlink:href="#DejaVuSans-55"/><use x="63.623" xlink:href="#DejaVuSans-53"/><use x="127.246" xlink:href="#DejaVuSans-48"/></g></g><g id="xtick_5"><path clip-path="url(#pac3872c090)" d="M1435.92 516.5V22.318" fill="none" stroke="#b0b0b0" stroke-linecap="square" stroke-width=".8" id="line2d_9"/><use x="1435.919" xlink:href="#mcc1a609365" y="516.5" stroke="#000" stroke-width=".8" id="line2d_10"/><g transform="matrix(.1 0 0 -.1 1423.194 531.098)" id="text_5"><defs><path d="M12.406 8.297h16.11v55.625l-17.532-3.516v8.985l17.438 3.515h9.86V8.296H54.39V0H12.406z" id="DejaVuSans-49"/></defs><use xlink:href="#DejaVuSans-49"/><use x="63.623" xlink:href="#DejaVuSans-48"/><use x="127.246" xlink:href="#DejaVuSans-48"/><use x="190.869" xlink:href="#DejaVuSans-48"/></g></g><g id="xtick_6"><path clip-path="url(#pac3872c090)" d="M1753.282 516.5V22.318" fill="none" stroke="#b0b0b0" stroke-linecap="square" stroke-width=".8" id="line2d_11"/><use x="1753.282" xlink:href="#mcc1a609365" y="516.5" stroke="#000" stroke-width=".8" id="line2d_12"/><g transform="matrix(.1 0 0 -.1 1740.557 531.098)" id="text_6"><use xlink:href="#DejaVuSans-49"/><use x="63.623" xlink:href="#DejaVuSans-50"/><use x="127.246" xlink:href="#DejaVuSans-53"/><use x="190.869" xlink:href="#DejaVuSans-48"/></g></g><g id="xtick_7"><path clip-path="url(#pac3872c090)" d="M2070.645 516.5V22.318" fill="none" stroke="#b0b0b0" stroke-linecap="square" stroke-width=".8" id="line2d_13"/><use x="2070.645" xlink:href="#mcc1a609365" y="516.5" stroke="#000" stroke-width=".8" id="line2d_14"/><g transform="matrix(.1 0 0 -.1 2057.92 531.098)" id="text_7"><use xlink:href="#DejaVuSans-49"/><use x="63.623" xlink:href="#DejaVuSans-53"/><use x="127.246" xlink:href="#DejaVuSans-48"/><use x="190.869" xlink:href="#DejaVuSans-48"/></g></g><g id="xtick_8"><path clip-path="url(#pac3872c090)" d="M2388.008 516.5V22.318" fill="none" stroke="#b0b0b0" stroke-linecap="square" stroke-width=".8" id="line2d_15"/><use x="2388.008" xlink:href="#mcc1a609365" y="516.5" stroke="#000" stroke-width=".8" id="line2d_16"/><g transform="matrix(.1 0 0 -.1 2375.283 531.098)" id="text_8"><use xlink:href="#DejaVuSans-49"/><use x="63.623" xlink:href="#DejaVuSans-55"/><use x="127.246" xlink:href="#DejaVuSans-53"/><use x="190.869" xlink:href="#DejaVuSans-48"/></g></g><g id="xtick_9"><path clip-path="url(#pac3872c090)" d="M2705.37 516.5V22.318" fill="none" stroke="#b0b0b0" stroke-linecap="square" stroke-width=".8" id="line2d_17"/><use x="2705.371" xlink:href="#mcc1a609365" y="516.5" stroke="#000" stroke-width=".8" id="line2d_18"/><g transform="matrix(.1 0 0 -.1 2692.646 531.098)" id="text_9"><use xlink:href="#DejaVuSans-50"/><use x="63.623" xlink:href="#DejaVuSans-48"/><use x="127.246" xlink:href="#DejaVuSans-48"/><use x="190.869" xlink:href="#DejaVuSans-48"/></g></g></g><g id="matplotlib.axis_2"><g id="ytick_1"><path clip-path="url(#pac3872c090)" d="M39.65 473.087h2790" fill="none" stroke="#b0b0b0" stroke-linecap="square" stroke-width=".8" id="line2d_19"/><g id="line2d_20"><defs><path d="M0 0h-3.5" id="m0ff56faa0f" stroke="#000" stroke-width=".8"/></defs><use x="39.65" xlink:href="#m0ff56faa0f" y="473.087" stroke="#000" stroke-width=".8"/></g><g transform="matrix(.1 0 0 -.1 7.2 476.887)" id="text_10"><defs><path d="M10.984 1.516V10.5q3.72-1.766 7.516-2.688 3.813-.921 7.484-.921 9.766 0 14.907 6.562 5.156 6.563 5.89 19.953-2.828-4.203-7.187-6.453-4.344-2.25-9.61-2.25-10.937 0-17.312 6.61-6.375 6.625-6.375 18.109 0 11.219 6.64 18 6.641 6.797 17.672 6.797 12.657 0 19.313-9.703 6.672-9.688 6.672-28.141 0-17.234-8.188-27.516Q40.234-1.42 26.422-1.42q-3.719 0-7.531.734-3.797.734-7.907 2.203zM30.61 32.422q6.641 0 10.516 4.531 3.89 4.547 3.89 12.469 0 7.86-3.89 12.422-3.875 4.562-10.516 4.562-6.64 0-10.515-4.562-3.875-4.563-3.875-12.422 0-7.922 3.875-12.469 3.875-4.531 10.515-4.531z" id="DejaVuSans-57"/></defs><use xlink:href="#DejaVuSans-49"/><use x="63.623" xlink:href="#DejaVuSans-57"/><use x="127.246" xlink:href="#DejaVuSans-53"/><use x="190.869" xlink:href="#DejaVuSans-48"/></g></g><g id="ytick_2"><path clip-path="url(#pac3872c090)" d="M39.65 414.894h2790" fill="none" stroke="#b0b0b0" stroke-linecap="square" stroke-width=".8" id="line2d_21"/><use x="39.65" xlink:href="#m0ff56faa0f" y="414.894" stroke="#000" stroke-width=".8" id="line2d_22"/><g transform="matrix(.1 0 0 -.1 7.2 418.693)" id="text_11"><use xlink:href="#DejaVuSans-49"/><use x="63.623" xlink:href="#DejaVuSans-57"/><use x="127.246" xlink:href="#DejaVuSans-55"/><use x="190.869" xlink:href="#DejaVuSans-53"/></g></g><g id="ytick_3"><path clip-path="url(#pac3872c090)" d="M39.65 356.7h2790" fill="none" stroke="#b0b0b0" stroke-linecap="square" stroke-width=".8" id="line2d_23"/><use x="39.65" xlink:href="#m0ff56faa0f" y="356.7" stroke="#000" stroke-width=".8" id="line2d_24"/><g transform="matrix(.1 0 0 -.1 7.2 360.499)" id="text_12"><use xlink:href="#DejaVuSans-50"/><use x="63.623" xlink:href="#DejaVuSans-48"/><use x="127.246" xlink:href="#DejaVuSans-48"/><use x="190.869" xlink:href="#DejaVuSans-48"/></g></g><g id="ytick_4"><path clip-path="url(#pac3872c090)" d="M39.65 298.506h2790" fill="none" stroke="#b0b0b0" stroke-linecap="square" stroke-width=".8" id="line2d_25"/><use x="39.65" xlink:href="#m0ff56faa0f" y="298.506" stroke="#000" stroke-width=".8" id="line2d_26"/><g transform="matrix(.1 0 0 -.1 7.2 302.305)" id="text_13"><use xlink:href="#DejaVuSans-50"/><use x="63.623" xlink:href="#DejaVuSans-48"/><use x="127.246" xlink:href="#DejaVuSans-50"/><use x="190.869" xlink:href="#DejaVuSans-53"/></g></g><g id="ytick_5"><path clip-path="url(#pac3872c090)" d="M39.65 240.312h2790" fill="none" stroke="#b0b0b0" stroke-linecap="square" stroke-width=".8" id="line2d_27"/><use x="39.65" xlink:href="#m0ff56faa0f" y="240.312" stroke="#000" stroke-width=".8" id="line2d_28"/><g transform="matrix(.1 0 0 -.1 7.2 244.111)" id="text_14"><use xlink:href="#DejaVuSans-50"/><use x="63.623" xlink:href="#DejaVuSans-48"/><use x="127.246" xlink:href="#DejaVuSans-53"/><use x="190.869" xlink:href="#DejaVuSans-48"/></g></g><g id="ytick_6"><path clip-path="url(#pac3872c090)" d="M39.65 182.118h2790" fill="none" stroke="#b0b0b0" stroke-linecap="square" stroke-width=".8" id="line2d_29"/><use x="39.65" xlink:href="#m0ff56faa0f" y="182.118" stroke="#000" stroke-width=".8" id="line2d_30"/><g transform="matrix(.1 0 0 -.1 7.2 185.918)" id="text_15"><use xlink:href="#DejaVuSans-50"/><use x="63.623" xlink:href="#DejaVuSans-48"/><use x="127.246" xlink:href="#DejaVuSans-55"/><use x="190.869" xlink:href="#DejaVuSans-53"/></g></g><g id="ytick_7"><path clip-path="url(#pac3872c090)" d="M39.65 123.925h2790" fill="none" stroke="#b0b0b0" stroke-linecap="square" stroke-width=".8" id="line2d_31"/><use x="39.65" xlink:href="#m0ff56faa0f" y="123.925" stroke="#000" stroke-width=".8" id="line2d_32"/><g transform="matrix(.1 0 0 -.1 7.2 127.724)" id="text_16"><use xlink:href="#DejaVuSans-50"/><use x="63.623" xlink:href="#DejaVuSans-49"/><use x="127.246" xlink:href="#DejaVuSans-48"/><use x="190.869" xlink:href="#DejaVuSans-48"/></g></g><g id="ytick_8"><path clip-path="url(#pac3872c090)" d="M39.65 65.73h2790" fill="none" stroke="#b0b0b0" stroke-linecap="square" stroke-width=".8" id="line2d_33"/><use x="39.65" xlink:href="#m0ff56faa0f" y="65.731" stroke="#000" stroke-width=".8" id="line2d_34"/><g transform="matrix(.1 0 0 -.1 7.2 69.53)" id="text_17"><use xlink:href="#DejaVuSans-50"/><use x="63.623" xlink:href="#DejaVuSans-49"/><use x="127.246" xlink:href="#DejaVuSans-50"/><use x="190.869" xlink:href="#DejaVuSans-53"/></g></g></g><path clip-path="url(#pac3872c090)" d="M166.468 426.532l2.54 41.9 1.269 6.983 1.269-18.622 1.27-46.555 1.269-72.16 2.539-197.86 1.27-74.487 1.269-20.95 1.27 44.227 1.269 97.766 1.269 121.043 1.27 97.766 1.269 41.9 1.27-4.656 1.269-13.967 1.27-6.983 1.269 2.328 1.27 4.655h1.269l1.27-4.655h1.269l1.269 2.327h1.27l1.269-4.655h1.27l1.269 2.328 1.27-4.656 2.538-23.277 1.27-2.328 1.27-4.656 1.269-9.31 1.269-11.64 1.27-2.327 1.269 2.328h1.27l1.269-4.656h1.27l2.538 18.622 1.27 4.656 1.269 2.327 1.27 6.984 1.269 16.294 1.27 11.639h2.538l1.27 2.327 1.27 4.656h1.269l2.539-9.311 2.538 9.31 1.27-2.327 1.27-6.983h1.269l1.27 4.655 1.269 2.328 2.539-4.655h1.27l1.269 2.327h1.269l1.27-2.327 1.269 4.655 1.27 16.294 1.269 18.622 1.27 9.311 1.269-9.31 1.27-34.917 1.269-65.177 3.808-279.33 1.27-32.589 1.269 25.605 1.27 69.833 2.538 197.859 1.27 79.144 1.27 41.9 1.269 6.982 1.269-4.655 2.539-18.622 1.27-11.639 1.269-9.31h1.27l1.269 4.655 1.27 2.327 1.269-6.983 1.27-4.655 1.269 2.327 1.269 4.656h1.27l2.538-4.656 2.54 4.656 1.269-2.328 1.27-4.655 2.538 4.655h1.27l1.269-4.655h1.27l1.269 4.655h1.27l2.538-9.31 1.27 2.327 1.27 4.655 1.269-2.327 1.269-4.656 1.27-2.328h1.269l1.27-2.327 1.269-9.311 1.27-11.64 2.538-4.655 1.27-9.31 1.269-11.64 1.27-6.983 1.269-4.655 1.27-2.328 1.269-6.983 1.27-11.639 1.269-4.656 1.27 2.328h1.269l2.539-13.966 1.269 2.327 1.27 4.656h1.269l1.27-2.328h1.269l2.539 9.311h1.27l1.269 2.328 1.27 6.983 1.269 11.639 1.269 6.983 1.27 2.328 1.269 4.656 1.27 9.31 1.269 11.64 2.539 4.655 1.27 6.983 1.269 11.639 1.269 9.31 1.27 2.329 1.269 4.655 1.27 6.983 1.269 4.656 1.27-2.328 1.269-4.655h1.27l1.269 4.655h1.27l1.269-4.655 1.269-2.328 1.27 2.328 1.269 4.655 1.27-2.328 1.269-4.655h1.27l1.269 4.655h1.27l1.269-2.327 1.27-4.656 2.538 4.656h1.27l1.269-4.656 1.27-2.328 1.269 4.656 1.27 2.328 1.269-2.328 1.27-4.656 3.807 6.984 1.27-4.656 1.27-2.328 1.269 4.656 1.27 2.328 1.269-2.328 1.27-4.656 1.269 2.328 1.27 4.656h1.269l1.269-4.656 1.27-2.328 1.269 4.656 1.27 2.328 1.269-2.328 1.27-4.656h1.269l1.27 2.328h1.269l1.269-4.655h1.27l1.269 2.327 1.27 4.656h1.269l1.27-6.983 1.269-2.328 2.539 4.655 2.539-4.655 2.538 4.655 1.27-4.655 2.539-23.278 2.539-9.31 1.27-9.312 1.269-11.638 1.27-2.328h2.538l1.27-2.328 1.269 2.328 1.27 6.983 1.269 11.639 1.27 6.983 1.269 4.656 1.27 6.983 1.269 11.639 1.269 9.31h1.27l2.538 4.656 1.27 4.656 1.27-2.328 1.269-4.656 1.27-2.327 2.538 4.655 2.539-4.655 1.27 2.327 1.269 4.656h1.27l1.269-6.983 1.27-2.328 2.538 9.31 1.27-4.655 1.27-2.327 1.269 6.983 1.269 16.294 1.27 18.622 1.269 9.311 1.27-9.31 1.269-34.917 1.27-67.505 1.269-95.438 1.27-104.749 1.269-81.471 1.269-30.26 1.27 25.604 1.269 72.16 2.539 200.187 1.27 79.144 1.269 41.9 1.27 9.31 1.269-4.655 1.27-6.983 2.538-23.278 1.27-4.655 1.269 2.328 1.27 4.655h1.269l1.27-4.655 1.269-2.328 2.539 4.655 2.539-4.655 2.538 4.655h1.27l1.27-4.655h2.538l1.27 2.328 1.27-4.656 1.269-2.328h1.269l1.27 4.656 1.269-2.328 1.27-4.655 1.269-2.328 2.539 9.31 1.27-2.327 1.269-4.655 1.27-2.328 1.269 2.328 1.269-4.656 1.27-6.983 1.269-11.639 2.539-9.311 1.27-9.311 1.269-11.639 1.27-6.983 1.269-2.328 1.269-4.655 1.27-9.311 1.269-6.984 1.27-2.327h1.269l1.27-4.656 1.269-6.983 1.27-4.656h1.269l1.27 2.328 1.269-2.328h1.269l1.27 4.656 1.269 6.983 1.27 2.328h1.269l1.27 2.328 2.538 18.622 1.27 4.655 1.27 2.328 1.269 9.311 1.269 11.639 1.27 9.31 1.269 2.329 1.27 4.655 1.269 11.639 1.27 9.31 1.269 6.984 1.27 2.328 1.269 4.655 1.269 6.984 1.27 2.327 1.269-4.655 1.27-2.328 2.538 4.656 1.27-2.328 1.27-6.983 1.269-2.328 1.27 4.655 1.269 2.328 2.538-9.31 1.27 2.327 1.27 4.655h1.269l1.27-4.655 1.269-2.328 1.27 4.656h1.269l1.27-2.328 1.269-4.656 2.538 4.656h1.27l1.27-4.656h1.269l1.27 4.656 1.269 2.328 1.27-2.328 1.269-6.983h1.269l1.27 4.655 1.269 2.328 2.539-4.656 2.539 4.656 1.27-2.328 1.269-4.655h1.27l1.269 2.327h1.269l1.27-6.983 1.269-2.328 1.27 2.328 1.269 4.656h1.27l1.269-4.656h1.27l1.269 2.328 1.269 4.655 1.27-2.327 1.269-4.656h1.27l1.269 4.656 1.27 2.327 2.538-4.655 1.27 2.328h1.27l1.269-6.984 1.269-11.638 1.27-6.984 1.269-4.655 1.27-6.983 2.538-18.622 1.27-2.328h1.27l2.538-4.656 1.27 2.328 1.269 9.311 1.27 4.656 1.269 2.327 1.27 4.656 1.269 11.639 1.27 13.966 1.269 6.983 1.27 2.328h1.269l1.269 4.656 1.27 2.327 1.269-2.327 1.27-4.656h1.269l1.27 4.656h1.269l2.539-9.311 1.27 4.655 1.269 2.328h1.269l1.27-4.656h1.269l1.27 2.328h1.269l1.27-4.655 1.269-2.328 1.27 9.31 2.538 32.59 1.27 6.983 1.269-6.984 1.27-34.916 1.269-69.833 2.539-200.186 1.27-79.144 1.269-30.26 1.27 23.277 1.269 69.833 2.538 204.842 1.27 76.816 1.27 39.571 1.269 9.311 1.27-2.327 1.269-6.984 2.539-27.933 1.27-2.327 1.269 4.655 1.269 2.328 1.27-2.328 1.269-4.655 1.27-2.328 1.269 4.655 1.27 2.328 1.269-2.328 1.27-4.655 2.538 4.655 1.27-2.327 1.269-4.656h1.27l1.269 4.656h1.27l1.269-4.656 1.27-2.328 1.269 2.328 1.27 4.656 1.269-2.328 1.269-4.656h1.27l1.269 2.328h1.27l2.538-9.31h1.27l1.27 4.655 1.269-2.328 1.27-11.639 1.269-9.311 2.538-9.311 1.27-9.311 1.27-11.639 1.269-6.983 1.27-2.328 1.269-6.983 1.27-9.311 1.269-6.983h2.538l1.27-4.656 1.27-9.31 1.269-2.329 1.27 2.328h1.269l1.27-4.655h1.269l2.539 9.31 2.538 4.656 1.27 4.656 1.27 6.983 1.269 9.311 1.27 2.328 1.269 4.655 2.539 23.278 1.27 9.31 1.269 2.329 1.269 6.983 2.539 18.622 1.27 2.328 1.269 4.655 2.539 13.967h1.27l2.538-9.311 1.27 4.655h1.269l1.27-2.328 1.269-4.655 2.539 4.655h1.27l1.269-4.655 1.27-2.328 1.269 4.656 1.269 2.327 1.27-2.327 1.269-4.656 2.539 4.656h1.27l1.269-2.328 1.27-4.656 2.538 4.656 2.539-4.656h1.27l1.269 4.656 1.27 2.328 1.269-4.656 1.27-2.328 1.269 2.328 1.27 4.656 1.269-2.328 1.269-4.656h1.27l1.269 4.656 1.27 2.328 1.269-4.656 1.27-2.328 2.538 4.656h1.27l1.27-4.656 1.269-2.327 1.269 4.655 1.27 2.328 1.269-2.328 1.27-4.655 1.269 2.327 1.27 4.656 1.269-2.328 1.27-4.655h1.269l1.269 2.327 1.27 4.656 1.269-4.656 1.27-2.327 2.538 4.655 1.27-2.328 2.539-18.622 2.539-9.31 1.269-9.312 1.27-11.638 1.269-4.656h1.27l1.269-2.328 1.27-4.655h1.269l1.27 4.655 1.269 6.984 2.539 4.655 1.269 9.311 1.27 11.639 1.269 9.31 1.27 4.656 1.269 2.328 1.27 6.983 1.269 4.656 1.27-2.328 1.269-4.655h1.269l2.539 4.655 1.27-4.655 1.269-2.328 1.27 2.328 1.269 4.655 2.539-4.655h1.27l2.538 4.655 2.539-9.31 1.27 4.655 1.269 9.31 2.539 27.934 1.27 11.638 1.269-4.655 1.27-34.916 1.269-72.16 2.538-193.204 1.27-76.816 1.27-34.916 1.269 18.622 1.27 74.488 2.538 207.17 1.27 74.488 1.269 37.244 1.27 13.966h1.269l1.27-11.638 1.269-16.295 1.27-11.638h1.269l1.27 2.327 3.808-6.983 1.269 2.328h1.27l2.538-4.656 1.27 2.328 1.27 4.656 2.538-9.311h1.27l1.269 4.655h1.27l2.538-9.31 1.27 2.327 1.27 4.655h1.269l1.27-6.983 1.269-2.328 1.27 4.656 1.269 2.328 1.269-2.328 1.27-4.656 2.538 4.656 1.27-2.328 2.539-18.622 1.27-2.328 1.269-4.655 1.27-9.311 1.269-11.639 1.269-6.983 1.27-2.328 1.269-6.983 1.27-11.639 1.269-6.983 1.27-2.328h1.269l2.539-13.967 1.269-2.327h1.27l1.269 2.327 1.27-4.655 1.269-2.328 1.27 4.656 1.269 6.983h2.539l1.27 2.328 1.269 9.31 1.269 6.984 1.27 4.655 1.269 2.328 1.27 9.311 1.269 11.639 1.27 6.983 1.269 2.328 1.27 6.983 1.269 13.967 1.27 9.31 2.538 4.656 1.27 6.984 1.269 9.31 1.27 2.328 2.538-4.655 1.27 2.328 1.27 4.655 2.538-9.31 2.539 4.655h1.27l1.269-4.656h1.27l2.538 4.656 1.27-2.328 1.27-4.656h1.269l1.269 4.656 1.27 2.328 2.538-9.311 1.27 2.327h1.27l1.269-2.327 1.27-4.656h1.269l2.539 4.656 1.269-2.328 1.27-4.656 1.269 2.328 1.27 4.656 1.269-2.328 1.27-4.656h1.269l1.27 4.656 1.269 2.328 1.269-4.656 1.27-2.328h1.269l1.27 4.656h1.269l1.27-4.656 1.269-2.327 1.27 4.655 1.269 2.328 2.539-9.311 1.269 2.328 1.27 4.655h1.269l2.539-4.655 2.539 4.655 1.27-2.328 1.269-4.655 2.538 4.655h1.27l2.539-13.966 2.539-9.311 1.27-9.311 1.269-11.639 1.27-6.983h1.269l1.269-2.328 1.27-6.983 1.269-4.656 1.27 4.656 1.269 6.983 2.539 4.656 1.27 6.983 1.269 11.639 1.27 9.31 2.538 9.312 1.27 6.983 1.269 9.31h1.27l1.269-4.655 1.27-2.327 2.538 4.655 1.27-4.655 1.269-2.328h1.27l1.269 4.655h1.27l1.269-4.655 1.27-2.328 1.269 4.656 1.27 2.327 1.269-4.655 1.27-2.328 1.269 2.328 2.538 9.31 1.27 9.312 2.539 32.588 1.27-4.655 1.269-41.9 1.27-76.816 2.538-186.22 1.27-81.471 1.269-37.244 1.27 23.277 1.269 79.144 2.539 200.187 1.27 69.832 1.269 41.9 1.27 18.622h1.269l1.269-16.294 1.27-13.967 1.269-4.655 1.27 2.327h1.269l1.27-4.655 1.269 2.328 1.27 4.655 1.269 2.328 2.539-9.311 1.269 2.328 1.27 4.655 1.269-2.328 1.27-4.655h1.269l1.27 2.328 1.269 4.655 2.539-9.31h1.269l2.539 4.655 1.27-2.328 1.269-4.656 2.539 4.656h1.27l1.269-4.656h1.27l2.538 4.656 3.808-20.95 1.27-2.328 1.27-6.983 1.269-11.639 1.27-9.31 2.538-9.312 2.539-18.622 1.27-4.655h1.269l1.27-4.656 1.269-9.31 1.27-4.656h1.269l1.27 2.327 1.269-2.327 1.269-6.984h1.27l1.269 6.984 1.27 4.655 1.269-2.328 1.27 2.328 2.538 13.967 2.54 4.655 1.269 6.984 1.269 11.638 1.27 9.311 1.269 2.328 1.27 6.983 1.269 11.639 1.27 9.311 1.269 4.656 1.27 2.327 1.269 6.984 1.27 9.31 1.269 6.984h1.269l1.27-2.328h1.269l1.27 4.656h1.269l1.27-4.656 1.269-2.328 2.539 4.656 2.538-4.656h3.809l1.27-4.655h1.269l1.27 2.328 1.269 4.655 2.539-9.31 2.538 4.655h1.27l2.539-9.311 2.539 9.31 1.27-2.327 1.269-4.656 1.269-2.327 1.27 4.655h1.269l1.27-4.655 1.269-2.328 2.539 4.655h1.27l1.269-4.655h1.27l2.538 4.655 1.27-2.327 1.269-4.656 2.539 4.656h1.27l1.269-4.656 1.27-2.328 2.538 4.656 2.539-4.656 1.27 2.328 1.269 4.656h1.27l1.269-4.656 1.27-2.328 2.538 4.656 2.539-9.311 1.27-2.328h1.269l1.27-6.983 2.538-23.278 1.27-4.655 1.27-2.328 2.538-13.966 1.27-2.328 2.538 9.31 1.27-2.327 1.27 2.328 1.269 9.31 1.27 11.64 1.269 6.983 1.27 4.655 1.269 6.984 1.27 9.31 1.269 6.984h1.269l1.27-4.656 2.538 4.656h1.27l1.27-4.656h1.269l1.27 4.656 1.269 2.328 2.538-9.311h1.27l1.27 4.655h1.269l1.27-4.655 1.269-2.328 2.539 9.31h1.27l1.269 4.656 1.269 13.967 1.27 20.95 1.269 6.983 1.27-27.933 1.269-58.194 1.27-79.144 2.538-193.203 1.27-67.505 1.27-4.655 1.269 58.193 3.808 281.659 1.27 60.521 1.269 32.589 1.27 6.983 1.269-11.639 1.27-13.966 1.269-6.984 1.269-2.327 1.27-6.984 1.269-4.655h1.27l1.269 4.655h1.27l1.269-4.655 1.27-2.328 1.269 2.328 1.27 4.655h1.269l1.269-4.655h1.27l1.269 4.655h1.27l2.538-9.31 2.54 4.655h1.269l1.269-4.656h1.27l1.269 4.656 1.27 2.328 1.269-4.656 1.27-2.328h1.269l1.27 4.656 1.269-2.328 2.539-9.31 1.269-2.329 1.27-6.983 1.269-9.31 1.27-13.967 1.269-6.984 1.27-2.327 1.269-6.984 2.539-18.622 2.539-4.655 2.538-18.622 1.27-2.328 1.27 2.328 1.269-2.328 2.539-9.311 2.539 9.311h1.269l1.27-2.328 1.269 4.656 2.539 13.966 2.539 4.656 1.27 6.983 1.269 9.311 1.27 6.983 1.269 4.656 1.269 6.983 2.539 23.278 1.27 4.655h1.269l1.27 6.983 1.269 11.64 1.27 6.982h2.538l2.539 9.311 1.27-2.327 1.269-6.984h1.27l1.269 4.656h1.27l2.538-9.311 1.27 2.328 1.269 4.655h1.27l1.269-4.655h1.27l1.269 4.655h1.27l1.269-2.328 1.27-4.655h1.269l1.27 4.655h1.269l1.269-6.983 1.27-2.328 1.269 2.328 1.27 4.656 1.269-2.328 1.27-4.656h1.269l1.27 4.656h1.269l1.269-4.656 1.27-2.327 1.269 2.327 1.27 4.656 1.269-4.656 1.27-2.327h1.269l1.27 2.327h1.269l1.27-4.655 1.269-2.328 1.269 2.328 1.27 4.655 1.269-2.327 1.27-4.656h1.269l1.27 4.656h1.269l1.27-4.656 1.269-2.328 1.27 4.656 1.269 2.328 2.538-4.656h1.27l1.27 6.983h1.269l1.27-6.983 1.269-4.655 2.539-4.656 1.269-6.983 1.27-13.967 1.269-11.638 2.539-4.656 2.539-13.966h1.27l1.269 4.655h1.27l1.269-2.328 1.269 4.656 1.27 9.31 1.269 11.64 1.27 6.983 1.269 2.328 2.539 18.622 1.27 6.983 2.538-4.656 1.27 2.328 1.269 4.656 1.27-2.328 1.269-6.983h1.27l1.269 4.655h1.27l1.269-2.328 1.27-4.655 1.269 2.328 1.269 4.655 1.27-2.328 1.269-4.655 1.27-2.328 1.269 4.656 1.27 2.327 1.269-2.327 1.27 6.983 1.269 18.622 1.27 23.277 1.269 2.328 1.269-25.605 1.27-58.194 1.269-76.816 2.539-190.875 1.27-65.178 1.269-2.327 1.27 55.866 3.808 277.002 1.269 60.522 1.27 30.26 1.269 2.328 1.27-11.638 1.269-13.967 2.539-9.31 1.27-6.984 1.269-2.328 2.538 9.311 1.27-4.655 1.27-6.984h1.269l1.27 4.656 1.269 2.328 1.27-2.328 1.269-4.656h1.27l1.269 4.656h1.269l1.27-6.983 1.269-2.328 1.27 2.328 1.269 4.655 2.539-4.655h1.27l1.269 2.327h1.269l1.27-4.655 1.269-2.328 2.539 4.656 1.27-2.328 1.269-4.656 2.539-4.655 1.27-6.983 1.269-9.311 1.269-11.64 1.27-2.327 1.269-4.655 1.27-9.311 1.269-13.967 1.27-6.983h1.269l1.27-2.328 2.538-13.967 1.27-2.327h1.269l1.27-2.328 1.269-6.983 1.27-2.328 2.538 9.311h2.54l1.269 4.655 1.269 6.984 1.27 2.327h1.269l1.27 4.656 1.269 9.311 1.27 11.639 1.269 6.983 1.27 4.656 1.269 9.31 1.27 13.967 1.269 6.983 2.538 4.656 1.27 6.983 1.27 9.311 1.269 4.656 3.808 6.983h1.27l2.539-9.311 1.269 2.328 1.27 4.655 1.269-2.328 1.27-4.655h1.269l1.27 4.655h1.269l1.27-2.327 1.269-4.656 1.269 2.328 1.27 4.655h1.269l1.27-4.655 1.269-2.328 2.539 4.656 1.27-2.328 1.269-4.656 1.27 2.328 1.269 4.656h1.269l1.27-4.656 1.269-2.328 2.539 4.656 1.27-2.328 1.269-4.655h1.27l1.269 2.327h1.269l1.27-4.655h1.269l2.539 4.655 2.539-4.655h1.27l1.269 2.328h1.27l1.269-4.656 1.269-2.328 1.27 2.328 1.269 4.656 2.539-4.656h1.27l2.538 4.656 1.27-4.656 1.27-2.328 1.269 2.328 1.269 6.983 1.27-2.327 1.269-4.656 1.27-2.328h1.269l1.27-2.327 1.269-9.311 1.27-11.64 1.269-6.982 1.269-2.328 1.27-6.983 1.269-9.311 1.27-4.656h1.269l1.27 4.656 1.269-2.328h1.27l1.269 4.655 1.27 11.639 1.269 6.983 2.538 9.311 2.54 23.278 1.269 4.655 1.27-2.327h1.269l1.27 4.655h1.269l2.539-9.31 1.269 2.327 1.27 4.655h1.269l2.539-4.655 1.27 4.655h1.269l1.27-2.327 1.269-4.656 1.269 2.328 1.27 4.655h1.269l1.27-2.327 1.269 6.983 1.27 18.622 1.269 20.95 1.27 2.327 1.269-27.933 1.27-53.538 1.269-79.144 2.538-197.858 1.27-62.85h1.27l1.269 58.194 2.539 188.548 1.27 93.11 1.269 62.85 1.269 30.26h1.27l2.538-23.277 2.54-13.967 1.269-4.655 1.27-2.328 1.269 4.655 1.27 2.328 2.538-9.31 1.27 2.327 1.269 4.655h1.27l1.269-6.983 1.27-2.328 2.538 4.656h1.27l1.27-6.983h1.269l1.269 2.327h1.27l2.538-9.31 1.27 2.327 1.27 4.656h1.269l1.27-4.656h1.269l2.538 4.656 1.27-4.656 1.27-2.328h1.269l1.27-2.327 1.269-6.984 2.539-18.622 2.539-4.655 2.538-23.278 1.27-4.655 1.27-2.328 1.269-4.655 1.27-9.312 1.269-6.983 1.27-2.328 1.269 2.328 2.539-9.31 1.269-2.329 1.27 2.328 1.269 4.656 2.539-4.656 1.27 4.656 2.538 13.966 1.27 2.328 1.269 4.656 2.539 18.622 2.539 4.655 1.27 9.311 1.269 13.967 1.27 9.31 1.269 4.656 1.27 6.983 1.269 11.64 1.269 9.31 1.27 4.656h1.269l3.808 6.983 2.54-9.311 1.269 2.328 1.269 4.655h1.27l1.269-4.655 1.27-2.328 2.538 4.655 1.27-2.327 1.27-4.656h1.269l1.27 4.656 1.269 2.327 2.538-9.31 1.27 4.655 1.27 2.328h1.269l1.27-4.656h1.269l1.27 2.328h1.269l1.27-2.328 1.269-4.655h1.269l1.27 2.327 1.269-2.327 1.27-4.656 1.269-2.328 1.27 4.656 1.269 2.328 2.539-4.656h1.269l1.27 2.328h1.269l1.27-6.983 1.269-2.328 1.27 2.328 1.269 4.655 1.27-2.328 1.269-4.655 1.27-2.328 1.269 4.656 1.269 2.327 1.27-4.655 1.269-2.328 2.539 4.656 1.27-2.328 1.269-4.656h1.27l1.269 4.656 1.27 2.328 1.269-2.328 1.269-4.656h1.27l1.269-2.327 1.27-9.311 1.269-11.64 1.27-6.982 2.538-9.311 1.27-9.311 1.269-6.984h1.27l1.269 4.656 1.27 2.328h1.269l1.27 4.655 1.269 6.983 1.27 9.311 1.269 6.984 1.27 4.655 2.538 18.622 1.27 6.983 2.538-4.655 2.54 4.655 2.538-4.655h1.27l1.27 2.328h1.269l2.538-4.656h1.27l1.27 4.656 1.269-2.328 1.27-4.656h1.269l2.539 4.656 1.269-2.328 1.27 6.983 1.269 18.622 1.27 20.95 1.269 2.328 1.27-25.605 1.269-58.194 1.27-79.144 2.538-193.203 1.27-62.85 1.269-4.655 1.27 58.194 3.808 277.002 1.27 62.85 1.269 30.26h1.27l2.538-27.933 1.27-4.655 1.269-2.328 1.27-6.983 1.269-2.328 1.27 4.656 1.269 2.327 1.27-2.327 1.269-4.656 1.27 2.328 1.269 4.655 1.269 2.328 2.539-9.31 1.27 2.327 1.269 4.655 1.27-2.327 1.269-4.656 1.27-2.328 1.269 4.656 1.27 2.328 2.538-4.656 1.27 2.328 1.269 4.655h1.27l1.269-4.655 1.27-2.328 1.269 4.656 1.27 2.327h1.269l2.538-9.31 1.27-2.328 1.27-9.311 1.269-11.64 1.27-9.31 2.538-4.656 1.27-9.31 1.27-13.967 1.269-6.983 1.269-2.328 1.27-4.656 1.269-9.31 1.27-4.656 1.269-2.328 1.27 2.328 1.269-4.656 1.27-6.983h1.269l1.27 2.328 1.269 4.655 2.538-4.655 1.27 4.655 1.27 9.311 3.808 6.984 1.27 11.638 1.269 9.311 2.538 9.311 1.27 9.311 1.27 11.64 1.269 6.982 1.27 2.328 1.269 4.656 1.27 11.638 1.269 6.984 3.808 6.983 1.27 4.655 1.269-2.327 1.27-4.656 1.269-2.328 2.539 4.656 2.539-9.311 2.538 4.655h1.27l1.27-6.983h1.269l1.27 2.328 1.269 4.655h1.27l1.269-4.655h1.27l1.269 4.655h1.269l1.27-6.983 1.269-4.655 2.539 9.31 2.539-4.655h1.27l2.538 4.656 2.539-9.311h1.27l1.269 4.655h1.27l1.269-6.983 1.27-2.328 1.269 4.656 1.27 2.327 1.269-2.327 1.269-4.656h1.27l1.269 4.656 1.27 2.327 1.269-4.655 1.27-2.328 1.269 2.328 1.27 4.655 2.538-9.31h1.27l1.269 4.655h1.27l1.269-4.656 1.27-2.327 2.538 4.655h1.27l1.27-4.655h1.269l1.27 2.327 1.269-4.655 1.269-11.639 1.27-13.966 1.269-6.984 1.27-2.327 1.269-4.656 1.27-9.311 1.269-4.655 1.27 2.327h1.269l1.269-2.327h1.27l1.269 6.983 1.27 9.31 1.269 6.984 1.27 2.328 1.269 9.31 1.27 11.64 1.269 9.31h1.27l1.269-2.327 1.269 2.328 1.27 4.655h1.269l1.27-4.655 1.269-2.328 2.539 4.655h1.27l1.269-4.655h1.27l1.269 2.328h1.269l2.539-9.311 1.27 2.327 1.269 4.656 2.539-4.656 1.27 9.311 2.538 41.9h1.27l1.269-27.933 1.27-53.538 1.269-79.144 2.539-195.531 1.27-62.85h1.269l1.27 53.539 1.269 88.454 1.269 100.094 1.27 90.782 1.269 62.85 1.27 25.605h1.269l1.27-9.311 2.538-13.967 1.27-9.31 1.269-6.984h1.27l1.269 4.655h1.27l1.269-4.655 1.27-2.328 1.269 4.656 1.27 2.327 1.269-2.327 1.27-4.656h1.269l2.538 4.656 1.27-6.984 1.27-2.327h1.269l1.27 4.655 1.269-2.328 1.27-4.655h1.269l1.27 4.655 1.269 2.328 2.538-9.31 1.27 2.327 1.27 4.655h1.269l1.27-4.655 1.269-2.328h1.27l1.269-2.328 1.269-9.31 1.27-11.64 2.538-9.31 1.27-9.311 1.27-13.967 1.269-6.983 2.539-4.656 2.539-18.622 1.269-2.328 1.27 2.328 1.269-2.328 1.27-6.983 1.269-4.655 1.27 2.327 1.269 4.656 1.27-2.328 1.269-4.655 1.27 2.327 2.538 9.311h1.27l1.269 2.328 1.27 6.983 1.269 9.311 1.27 6.984 1.269 4.655 1.27 6.984 2.538 23.277 1.27 4.656 1.269 2.327 1.27 9.311 1.269 11.64 1.27 9.31 1.269 2.328h1.27l2.538 9.31 2.539-9.31 1.27 2.328 1.269 4.655 1.27 2.328 2.538-9.311 2.54 9.31 1.269-2.327 1.269-4.655h1.27l2.538 4.655 1.27-4.655 1.27-2.328 2.538 4.655 1.27-2.327 1.27-4.656 1.269-2.328 1.269 4.656 1.27 2.328 1.269-2.328 1.27-4.656h1.269l1.27 2.328h1.269l1.27-4.655h1.269l1.27 4.655 1.269 2.328 2.538-4.656h1.27l1.27 4.656 1.269 2.328 1.27-4.656 1.269-2.328 2.539 4.656 1.269-2.328 1.27-4.655 1.269-2.328 1.27 4.655h1.269l1.27-2.327 1.269-6.984 2.539 4.656h1.27l1.269-4.656h1.269l2.539 9.311 1.27-4.655 1.269-6.983h2.539l1.27-4.656 1.269-11.639 1.27-9.31 2.538-4.656 2.539-18.622 1.27-6.983 1.269 4.655 1.27 2.328 1.269-2.328h1.27l1.269 6.983 1.269 9.311 1.27 6.984 1.269 4.655 1.27 6.983 1.269 11.64 1.27 9.31 1.269 2.328 1.27-2.328 2.538 4.656h1.27l1.269-4.656h1.27l2.538 4.656 1.27-2.328 1.27-4.656 2.538 4.656h1.27l1.269-4.656h1.27l1.269 2.328 1.27 4.656 1.269-4.656h1.27l1.269 9.311 1.27 20.95 1.269 18.622h1.27l1.269-25.605 1.269-53.539 1.27-79.143 2.538-197.86 1.27-62.849h0" fill="none" stroke="#00f" stroke-linecap="square" stroke-width="1.5" id="line2d_35"/><path d="M39.65 516.5V22.318" fill="none" stroke="#000" stroke-linecap="square" stroke-width=".8" id="patch_3"/><path d="M2829.65 516.5V22.318" fill="none" stroke="#000" stroke-linecap="square" stroke-width=".8" id="patch_4"/><path d="M39.65 516.5h2790" fill="none" stroke="#000" stroke-linecap="square" stroke-width=".8" id="patch_5"/><path d="M39.65 22.318h2790" fill="none" stroke="#000" stroke-linecap="square" stroke-width=".8" id="patch_6"/><g transform="matrix(.12 0 0 -.12 1329.862 16.318)" id="text_18"><defs><path d="M53.516 70.516V60.89q-5.61 2.687-10.594 4-4.984 1.328-9.625 1.328-8.047 0-12.422-3.125t-4.375-8.89q0-4.845 2.906-7.313 2.907-2.453 11.016-3.97l5.953-1.218q11.031-2.11 16.281-7.406 5.25-5.297 5.25-14.172 0-10.61-7.11-16.078-7.093-5.469-20.812-5.469-5.172 0-11.015 1.172Q13.14.922 6.89 3.219v10.156q6-3.36 11.765-5.078 5.766-1.703 11.328-1.703 8.438 0 13.032 3.312 4.593 3.328 4.593 9.485 0 5.359-3.297 8.39-3.296 3.032-10.812 4.547L27.484 33.5q-11.03 2.188-15.968 6.875-4.922 4.688-4.922 13.047 0 9.672 6.812 15.234 6.813 5.563 18.766 5.563 5.14 0 10.453-.938 5.328-.922 10.89-2.765z" id="DejaVuSans-83"/><path d="M9.422 54.688h8.984V0H9.422zm0 21.296h8.984v-11.39H9.422z" id="DejaVuSans-105"/><path d="M45.406 27.984q0 9.766-4.031 15.125-4.016 5.375-11.297 5.375-7.219 0-11.25-5.375-4.031-5.359-4.031-15.125 0-9.718 4.031-15.093t11.25-5.375q7.281 0 11.297 5.375 4.031 5.375 4.031 15.093zm8.985-21.203q0-13.953-6.203-20.765Q42-20.797 29.203-20.797q-4.734 0-8.937.703-4.203.703-8.157 2.172v8.735q3.954-2.141 7.813-3.157 3.86-1.031 7.86-1.031 8.843 0 13.234 4.61 4.39 4.609 4.39 13.937v4.453q-2.781-4.844-7.125-7.234Q33.938 0 27.875 0 17.828 0 11.672 7.656q-6.156 7.672-6.156 20.328 0 12.688 6.156 20.344Q17.828 56 27.875 56q6.063 0 10.406-2.39 4.344-2.391 7.125-7.22v8.297h8.985z" id="DejaVuSans-103"/><path d="M54.89 33.016V0h-8.984v32.719q0 7.765-3.031 11.61-3.031 3.858-9.078 3.858-7.281 0-11.484-4.64-4.204-4.625-4.204-12.64V0H9.08v54.688h9.03v-8.5q3.235 4.937 7.594 7.374Q30.078 56 35.797 56q9.422 0 14.25-5.828 4.844-5.828 4.844-17.156z" id="DejaVuSans-110"/><path d="M34.281 27.484q-10.89 0-15.093-2.484-4.204-2.484-4.204-8.5 0-4.781 3.157-7.594 3.156-2.797 8.562-2.797 7.485 0 12 5.297 4.516 5.297 4.516 14.078v2zm17.922 3.72V0H43.22v8.297Q40.14 3.328 35.547.953q-4.594-2.375-11.234-2.375-8.391 0-13.36 4.719Q6 8.016 6 15.922q0 9.219 6.172 13.906 6.187 4.688 18.437 4.688h12.61v.89q0 6.203-4.078 9.594-4.078 3.39-11.453 3.39-4.688 0-9.141-1.124-4.438-1.125-8.531-3.375v8.312q4.921 1.906 9.562 2.844 4.64.953 9.031.953 11.875 0 17.735-6.156 5.86-6.14 5.86-18.64z" id="DejaVuSans-97"/><path d="M9.422 75.984h8.984V0H9.422z" id="DejaVuSans-108"/><path d="M45.406 46.39v29.594h8.985V0h-8.985v8.203Q42.578 3.328 38.25.953q-4.313-2.375-10.375-2.375-9.906 0-16.14 7.906-6.22 7.922-6.22 20.813 0 12.89 6.22 20.797Q17.968 56 27.874 56q6.063 0 10.375-2.375 4.328-2.36 7.156-7.234zm-30.61-19.093q0-9.906 4.079-15.547 4.078-5.64 11.203-5.64 7.125 0 11.219 5.64 4.11 5.64 4.11 15.547 0 9.906-4.11 15.547-4.094 5.64-11.219 5.64-7.125 0-11.203-5.64-4.078-5.64-4.078-15.547z" id="DejaVuSans-100"/><path d="M18.313 70.219V54.688h18.5v-6.985h-18.5V18.016q0-6.688 1.828-8.594 1.828-1.906 7.453-1.906h9.218V0h-9.218q-10.407 0-14.36 3.875-3.953 3.89-3.953 14.14v29.688H2.687v6.984h6.594V70.22z" id="DejaVuSans-116"/><path d="M4.203 54.688h8.985l11.234-42.672 11.172 42.672h10.593l11.235-42.672 11.187 42.672h8.985L63.28 0H52.688L40.922 44.828 29.109 0H18.5z" id="DejaVuSans-119"/><path d="M54.89 33.016V0h-8.984v32.719q0 7.765-3.031 11.61-3.031 3.858-9.078 3.858-7.281 0-11.484-4.64-4.204-4.625-4.204-12.64V0H9.08v75.984h9.03V46.188q3.235 4.937 7.594 7.374Q30.078 56 35.797 56q9.422 0 14.25-5.828 4.844-5.828 4.844-17.156z" id="DejaVuSans-104"/><path d="M2.984 54.688H12.5L29.594 8.797l17.093 45.89h9.516L35.687 0H23.485z" id="DejaVuSans-118"/><path d="M41.11 46.297q-1.516.875-3.297 1.281Q36.03 48 33.89 48q-7.625 0-11.703-4.953-4.079-4.953-4.079-14.234V0H9.08v54.688h9.03v-8.5q2.844 4.984 7.375 7.39Q30.031 56 36.531 56q.922 0 2.047-.125 1.125-.11 2.484-.36z" id="DejaVuSans-114"/><path d="M56.203 29.594v-4.39H14.891q.593-9.282 5.593-14.142 5-4.859 13.938-4.859 5.172 0 10.031 1.266 4.86 1.265 9.656 3.812v-8.5Q49.266.734 44.187-.344 39.11-1.422 33.892-1.422q-13.094 0-20.735 7.61-7.64 7.625-7.64 20.625 0 13.421 7.25 21.296Q20.016 56 32.328 56q11.031 0 17.453-7.11 6.422-7.093 6.422-19.296zm-8.984 2.64q-.094 7.36-4.125 11.75-4.032 4.407-10.672 4.407-7.516 0-12.031-4.25-4.516-4.25-5.203-11.97z" id="DejaVuSans-101"/><path d="M44.281 53.078v-8.5q-3.797 1.953-7.906 2.922-4.094.984-8.5.984-6.688 0-10.031-2.047-3.344-2.046-3.344-6.156 0-3.125 2.39-4.906 2.391-1.781 9.626-3.39l3.078-.688q9.562-2.047 13.593-5.781 4.032-3.735 4.032-10.422 0-7.625-6.032-12.078-6.03-4.438-16.578-4.438-4.39 0-9.156.86Q10.688.296 5.422 2v9.281q4.984-2.594 9.812-3.89 4.829-1.282 9.579-1.282 6.343 0 9.75 2.172 3.421 2.172 3.421 6.125 0 3.656-2.468 5.61-2.453 1.953-10.813 3.765l-3.125.735q-8.344 1.75-12.062 5.39-3.704 3.64-3.704 9.985 0 7.718 5.47 11.906Q16.75 56 26.811 56q4.97 0 9.36-.734 4.406-.72 8.11-2.188z" id="DejaVuSans-115"/><path d="M30.61 48.39q-7.22 0-11.422-5.64-4.204-5.64-4.204-15.453 0-9.813 4.172-15.453 4.188-5.64 11.453-5.64 7.188 0 11.375 5.655 4.203 5.672 4.203 15.438 0 9.719-4.203 15.406-4.187 5.688-11.375 5.688zm0 7.61q11.718 0 18.406-7.625 6.703-7.61 6.703-21.078 0-13.422-6.703-21.078-6.688-7.64-18.407-7.64-11.765 0-18.437 7.64-6.656 7.656-6.656 21.078 0 13.469 6.656 21.078Q18.844 56 30.609 56z" id="DejaVuSans-111"/></defs><use xlink:href="#DejaVuSans-83"/><use x="63.477" xlink:href="#DejaVuSans-105"/><use x="91.26" xlink:href="#DejaVuSans-103"/><use x="154.736" xlink:href="#DejaVuSans-110"/><use x="218.115" xlink:href="#DejaVuSans-97"/><use x="279.395" xlink:href="#DejaVuSans-108"/><use x="307.178" xlink:href="#DejaVuSans-32"/><use x="338.965" xlink:href="#DejaVuSans-100"/><use x="402.441" xlink:href="#DejaVuSans-97"/><use x="463.721" xlink:href="#DejaVuSans-116"/><use x="502.93" xlink:href="#DejaVuSans-97"/><use x="564.209" xlink:href="#DejaVuSans-32"/><use x="595.996" xlink:href="#DejaVuSans-119"/><use x="677.783" xlink:href="#DejaVuSans-105"/><use x="705.566" xlink:href="#DejaVuSans-116"/><use x="744.775" xlink:href="#DejaVuSans-104"/><use x="808.154" xlink:href="#DejaVuSans-32"/><use x="839.941" xlink:href="#DejaVuSans-97"/><use x="901.221" xlink:href="#DejaVuSans-118"/><use x="960.4" xlink:href="#DejaVuSans-103"/><use x="1023.877" xlink:href="#DejaVuSans-32"/><use x="1055.664" xlink:href="#DejaVuSans-97"/><use x="1116.943" xlink:href="#DejaVuSans-110"/><use x="1180.322" xlink:href="#DejaVuSans-100"/><use x="1243.799" xlink:href="#DejaVuSans-32"/><use x="1275.586" xlink:href="#DejaVuSans-116"/><use x="1314.795" xlink:href="#DejaVuSans-104"/><use x="1378.174" xlink:href="#DejaVuSans-114"/><use x="1417.037" xlink:href="#DejaVuSans-101"/><use x="1478.561" xlink:href="#DejaVuSans-115"/><use x="1530.66" xlink:href="#DejaVuSans-104"/><use x="1594.039" xlink:href="#DejaVuSans-111"/><use x="1655.221" xlink:href="#DejaVuSans-108"/><use x="1683.004" xlink:href="#DejaVuSans-100"/></g></g><g id="axes_2"><path d="M39.65 1109.518h2790V615.336h-2790z" fill="#fff" id="patch_7"/><g id="matplotlib.axis_3"><g id="xtick_10"><path clip-path="url(#pb8f96fbd85)" d="M166.468 1109.518V615.336" fill="none" stroke="#b0b0b0" stroke-linecap="square" stroke-width=".8" id="line2d_36"/><use x="166.468" xlink:href="#mcc1a609365" y="1109.518" stroke="#000" stroke-width=".8" id="line2d_37"/><use xlink:href="#DejaVuSans-48" transform="matrix(.1 0 0 -.1 163.287 1124.117)" id="text_19"/></g><g id="xtick_11"><path clip-path="url(#pb8f96fbd85)" d="M483.831 1109.518V615.336" fill="none" stroke="#b0b0b0" stroke-linecap="square" stroke-width=".8" id="line2d_38"/><use x="483.831" xlink:href="#mcc1a609365" y="1109.518" stroke="#000" stroke-width=".8" id="line2d_39"/><g transform="matrix(.1 0 0 -.1 474.287 1124.117)" id="text_20"><use xlink:href="#DejaVuSans-50"/><use x="63.623" xlink:href="#DejaVuSans-53"/><use x="127.246" xlink:href="#DejaVuSans-48"/></g></g><g id="xtick_12"><path clip-path="url(#pb8f96fbd85)" d="M801.194 1109.518V615.336" fill="none" stroke="#b0b0b0" stroke-linecap="square" stroke-width=".8" id="line2d_40"/><use x="801.194" xlink:href="#mcc1a609365" y="1109.518" stroke="#000" stroke-width=".8" id="line2d_41"/><g transform="matrix(.1 0 0 -.1 791.65 1124.117)" id="text_21"><use xlink:href="#DejaVuSans-53"/><use x="63.623" xlink:href="#DejaVuSans-48"/><use x="127.246" xlink:href="#DejaVuSans-48"/></g></g><g id="xtick_13"><path clip-path="url(#pb8f96fbd85)" d="M1118.557 1109.518V615.336" fill="none" stroke="#b0b0b0" stroke-linecap="square" stroke-width=".8" id="line2d_42"/><use x="1118.557" xlink:href="#mcc1a609365" y="1109.518" stroke="#000" stroke-width=".8" id="line2d_43"/><g transform="matrix(.1 0 0 -.1 1109.013 1124.117)" id="text_22"><use xlink:href="#DejaVuSans-55"/><use x="63.623" xlink:href="#DejaVuSans-53"/><use x="127.246" xlink:href="#DejaVuSans-48"/></g></g><g id="xtick_14"><path clip-path="url(#pb8f96fbd85)" d="M1435.92 1109.518V615.336" fill="none" stroke="#b0b0b0" stroke-linecap="square" stroke-width=".8" id="line2d_44"/><use x="1435.919" xlink:href="#mcc1a609365" y="1109.518" stroke="#000" stroke-width=".8" id="line2d_45"/><g transform="matrix(.1 0 0 -.1 1423.194 1124.117)" id="text_23"><use xlink:href="#DejaVuSans-49"/><use x="63.623" xlink:href="#DejaVuSans-48"/><use x="127.246" xlink:href="#DejaVuSans-48"/><use x="190.869" xlink:href="#DejaVuSans-48"/></g></g><g id="xtick_15"><path clip-path="url(#pb8f96fbd85)" d="M1753.282 1109.518V615.336" fill="none" stroke="#b0b0b0" stroke-linecap="square" stroke-width=".8" id="line2d_46"/><use x="1753.282" xlink:href="#mcc1a609365" y="1109.518" stroke="#000" stroke-width=".8" id="line2d_47"/><g transform="matrix(.1 0 0 -.1 1740.557 1124.117)" id="text_24"><use xlink:href="#DejaVuSans-49"/><use x="63.623" xlink:href="#DejaVuSans-50"/><use x="127.246" xlink:href="#DejaVuSans-53"/><use x="190.869" xlink:href="#DejaVuSans-48"/></g></g><g id="xtick_16"><path clip-path="url(#pb8f96fbd85)" d="M2070.645 1109.518V615.336" fill="none" stroke="#b0b0b0" stroke-linecap="square" stroke-width=".8" id="line2d_48"/><use x="2070.645" xlink:href="#mcc1a609365" y="1109.518" stroke="#000" stroke-width=".8" id="line2d_49"/><g transform="matrix(.1 0 0 -.1 2057.92 1124.117)" id="text_25"><use xlink:href="#DejaVuSans-49"/><use x="63.623" xlink:href="#DejaVuSans-53"/><use x="127.246" xlink:href="#DejaVuSans-48"/><use x="190.869" xlink:href="#DejaVuSans-48"/></g></g><g id="xtick_17"><path clip-path="url(#pb8f96fbd85)" d="M2388.008 1109.518V615.336" fill="none" stroke="#b0b0b0" stroke-linecap="square" stroke-width=".8" id="line2d_50"/><use x="2388.008" xlink:href="#mcc1a609365" y="1109.518" stroke="#000" stroke-width=".8" id="line2d_51"/><g transform="matrix(.1 0 0 -.1 2375.283 1124.117)" id="text_26"><use xlink:href="#DejaVuSans-49"/><use x="63.623" xlink:href="#DejaVuSans-55"/><use x="127.246" xlink:href="#DejaVuSans-53"/><use x="190.869" xlink:href="#DejaVuSans-48"/></g></g><g id="xtick_18"><path clip-path="url(#pb8f96fbd85)" d="M2705.37 1109.518V615.336" fill="none" stroke="#b0b0b0" stroke-linecap="square" stroke-width=".8" id="line2d_52"/><use x="2705.371" xlink:href="#mcc1a609365" y="1109.518" stroke="#000" stroke-width=".8" id="line2d_53"/><g transform="matrix(.1 0 0 -.1 2692.646 1124.117)" id="text_27"><use xlink:href="#DejaVuSans-50"/><use x="63.623" xlink:href="#DejaVuSans-48"/><use x="127.246" xlink:href="#DejaVuSans-48"/><use x="190.869" xlink:href="#DejaVuSans-48"/></g></g></g><g id="matplotlib.axis_4"><g id="ytick_9"><path clip-path="url(#pb8f96fbd85)" d="M39.65 1087.055h2790" fill="none" stroke="#b0b0b0" stroke-linecap="square" stroke-width=".8" id="line2d_54"/><use x="39.65" xlink:href="#m0ff56faa0f" y="1087.055" stroke="#000" stroke-width=".8" id="line2d_55"/><g transform="matrix(.1 0 0 -.1 16.747 1090.855)" id="text_28"><defs><path d="M10.688 12.406H21V0H10.687z" id="DejaVuSans-46"/></defs><use xlink:href="#DejaVuSans-48"/><use x="63.623" xlink:href="#DejaVuSans-46"/><use x="95.41" xlink:href="#DejaVuSans-48"/></g></g><g id="ytick_10"><path clip-path="url(#pb8f96fbd85)" d="M39.65 997.204h2790" fill="none" stroke="#b0b0b0" stroke-linecap="square" stroke-width=".8" id="line2d_56"/><use x="39.65" xlink:href="#m0ff56faa0f" y="997.204" stroke="#000" stroke-width=".8" id="line2d_57"/><g transform="matrix(.1 0 0 -.1 16.747 1001.003)" id="text_29"><use xlink:href="#DejaVuSans-48"/><use x="63.623" xlink:href="#DejaVuSans-46"/><use x="95.41" xlink:href="#DejaVuSans-50"/></g></g><g id="ytick_11"><path clip-path="url(#pb8f96fbd85)" d="M39.65 907.353h2790" fill="none" stroke="#b0b0b0" stroke-linecap="square" stroke-width=".8" id="line2d_58"/><use x="39.65" xlink:href="#m0ff56faa0f" y="907.353" stroke="#000" stroke-width=".8" id="line2d_59"/><g transform="matrix(.1 0 0 -.1 16.747 911.152)" id="text_30"><defs><path d="M37.797 64.313L12.89 25.39h24.906zm-2.594 8.593H47.61V25.391h10.407v-8.203H47.609V0h-9.812v17.188H4.89v9.515z" id="DejaVuSans-52"/></defs><use xlink:href="#DejaVuSans-48"/><use x="63.623" xlink:href="#DejaVuSans-46"/><use x="95.41" xlink:href="#DejaVuSans-52"/></g></g><g id="ytick_12"><path clip-path="url(#pb8f96fbd85)" d="M39.65 817.502h2790" fill="none" stroke="#b0b0b0" stroke-linecap="square" stroke-width=".8" id="line2d_60"/><use x="39.65" xlink:href="#m0ff56faa0f" y="817.502" stroke="#000" stroke-width=".8" id="line2d_61"/><g transform="matrix(.1 0 0 -.1 16.747 821.3)" id="text_31"><defs><path d="M33.016 40.375q-6.641 0-10.532-4.547-3.875-4.531-3.875-12.437 0-7.86 3.875-12.438 3.891-4.562 10.532-4.562 6.64 0 10.515 4.562 3.875 4.578 3.875 12.438 0 7.906-3.875 12.437-3.875 4.547-10.515 4.547zm19.578 30.922v-8.984q-3.719 1.75-7.5 2.671-3.782.938-7.5.938-9.766 0-14.922-6.594-5.14-6.594-5.875-19.922 2.875 4.25 7.219 6.516 4.359 2.266 9.578 2.266 10.984 0 17.36-6.672 6.374-6.657 6.374-18.125 0-11.235-6.64-18.032-6.641-6.78-17.672-6.78-12.657 0-19.344 9.687-6.688 9.703-6.688 28.109 0 17.281 8.204 27.563 8.203 10.28 22.015 10.28 3.719 0 7.5-.734t7.89-2.187z" id="DejaVuSans-54"/></defs><use xlink:href="#DejaVuSans-48"/><use x="63.623" xlink:href="#DejaVuSans-46"/><use x="95.41" xlink:href="#DejaVuSans-54"/></g></g><g id="ytick_13"><path clip-path="url(#pb8f96fbd85)" d="M39.65 727.65h2790" fill="none" stroke="#b0b0b0" stroke-linecap="square" stroke-width=".8" id="line2d_62"/><use x="39.65" xlink:href="#m0ff56faa0f" y="727.65" stroke="#000" stroke-width=".8" id="line2d_63"/><g transform="matrix(.1 0 0 -.1 16.747 731.45)" id="text_32"><defs><path d="M31.781 34.625q-7.031 0-11.062-3.766-4.016-3.765-4.016-10.343 0-6.594 4.016-10.36Q24.75 6.391 31.78 6.391q7.032 0 11.078 3.78 4.063 3.798 4.063 10.345 0 6.578-4.031 10.343-4.016 3.766-11.11 3.766zm-9.86 4.188q-6.343 1.562-9.89 5.906Q8.5 49.079 8.5 55.329q0 8.733 6.219 13.812 6.234 5.078 17.062 5.078 10.89 0 17.094-5.078 6.203-5.079 6.203-13.813 0-6.25-3.547-10.61-3.531-4.343-9.828-5.906 7.125-1.656 11.094-6.5 3.984-4.828 3.984-11.796 0-10.61-6.468-16.282-6.47-5.656-18.532-5.656-12.047 0-18.531 5.656-6.469 5.672-6.469 16.282 0 6.968 4 11.797 4.016 4.843 11.14 6.5zM18.314 54.39q0-5.657 3.53-8.828 3.548-3.172 9.938-3.172 6.36 0 9.938 3.172 3.593 3.171 3.593 8.828 0 5.672-3.593 8.843-3.578 3.172-9.938 3.172-6.39 0-9.937-3.172-3.532-3.172-3.532-8.843z" id="DejaVuSans-56"/></defs><use xlink:href="#DejaVuSans-48"/><use x="63.623" xlink:href="#DejaVuSans-46"/><use x="95.41" xlink:href="#DejaVuSans-56"/></g></g><g id="ytick_14"><path clip-path="url(#pb8f96fbd85)" d="M39.65 637.8h2790" fill="none" stroke="#b0b0b0" stroke-linecap="square" stroke-width=".8" id="line2d_64"/><use x="39.65" xlink:href="#m0ff56faa0f" y="637.799" stroke="#000" stroke-width=".8" id="line2d_65"/><g transform="matrix(.1 0 0 -.1 16.747 641.598)" id="text_33"><use xlink:href="#DejaVuSans-49"/><use x="63.623" xlink:href="#DejaVuSans-46"/><use x="95.41" xlink:href="#DejaVuSans-48"/></g></g></g><path clip-path="url(#pb8f96fbd85)" d="M166.468 1087.055h93.94l1.269-449.256h6.347l1.27 449.256h234.848l1.27-449.256h6.347l1.27 449.256h234.848l1.27-449.256h6.347l1.269 449.256h234.849L992.88 637.8h6.347l1.27 449.256h234.848l1.27-449.256h6.347l1.27 449.256h234.848l1.27-449.256h7.616l1.27 449.256h234.848l1.27-449.256h3.808l1.27 449.256h237.387l1.269-449.256h3.808l1.27 449.256h236.118l1.27-449.256h7.616l1.27 449.256h233.578l1.27-449.256h7.617l1.269 449.256h234.848l1.27-449.256h2.539" fill="none" stroke="#1f77b4" stroke-linecap="square" stroke-width="1.5" id="line2d_66"/><path d="M39.65 1109.518V615.336" fill="none" stroke="#000" stroke-linecap="square" stroke-width=".8" id="patch_8"/><path d="M2829.65 1109.518V615.336" fill="none" stroke="#000" stroke-linecap="square" stroke-width=".8" id="patch_9"/><path d="M39.65 1109.518h2790" fill="none" stroke="#000" stroke-linecap="square" stroke-width=".8" id="patch_10"/><path d="M39.65 615.336h2790" fill="none" stroke="#000" stroke-linecap="square" stroke-width=".8" id="patch_11"/><g transform="matrix(.12 0 0 -.12 1394.522 609.336)" id="text_34"><defs><path d="M8.5 21.578v33.11h8.984V21.922q0-7.766 3.016-11.656 3.031-3.875 9.094-3.875 7.265 0 11.484 4.64 4.234 4.64 4.234 12.656v31h8.985V0h-8.984v8.406Q42.047 3.422 37.718 1q-4.313-2.422-10.032-2.422-9.421 0-14.312 5.86Q8.5 10.296 8.5 21.578zM31.11 56z" id="DejaVuSans-117"/><path d="M18.11 8.203v-29H9.077v75.484h9.031v-8.296q2.844 4.875 7.157 7.234Q29.594 56 35.594 56q9.968 0 16.187-7.906 6.235-7.907 6.235-20.797T51.78 6.484q-6.218-7.906-16.187-7.906-6 0-10.328 2.375-4.313 2.375-7.157 7.25zm30.578 19.094q0 9.906-4.079 15.547-4.078 5.64-11.203 5.64-7.14 0-11.218-5.64-4.079-5.64-4.079-15.547 0-9.906 4.078-15.547 4.079-5.64 11.22-5.64 7.124 0 11.202 5.64t4.078 15.547z" id="DejaVuSans-112"/></defs><use xlink:href="#DejaVuSans-83"/><use x="63.477" xlink:href="#DejaVuSans-105"/><use x="91.26" xlink:href="#DejaVuSans-103"/><use x="154.736" xlink:href="#DejaVuSans-110"/><use x="218.115" xlink:href="#DejaVuSans-97"/><use x="279.395" xlink:href="#DejaVuSans-108"/><use x="307.178" xlink:href="#DejaVuSans-32"/><use x="338.965" xlink:href="#DejaVuSans-111"/><use x="400.146" xlink:href="#DejaVuSans-117"/><use x="463.525" xlink:href="#DejaVuSans-116"/><use x="502.734" xlink:href="#DejaVuSans-112"/><use x="566.211" xlink:href="#DejaVuSans-117"/><use x="629.59" xlink:href="#DejaVuSans-116"/></g></g></g><defs><clipPath id="pac3872c090"><path d="M39.65 22.318h2790V516.5h-2790z"/></clipPath><clipPath id="pb8f96fbd85"><path d="M39.65 615.336h2790v494.182h-2790z"/></clipPath></defs></svg>